<svg width="115" height="32" viewBox="0 0 115 32" fill="none" xmlns="http://www.w3.org/2000/svg">
<path fill-rule="evenodd" clip-rule="evenodd" d="M0 4.57143C0 2.0467 2.0467 0 4.57143 0H27.4286C29.9533 0 32 2.0467 32 4.57143V27.4286C32 29.9533 29.9533 32 27.4286 32H4.57143C2.0467 32 0 29.9533 0 27.4286V4.57143ZM5.02381 7.41125V25.1429H9.73377V14.8225H9.87229L13.8203 25.0043H16.6602L20.6082 14.8918H20.7468V25.1429H25.4567V7.41125H19.4654L15.3442 17.4545H15.1364L11.0152 7.41125H5.02381ZM15.2381 9.14286C16.9212 9.14286 18.2857 7.77839 18.2857 6.09524C18.2857 4.41208 16.9212 3.04762 15.2381 3.04762C13.5549 3.04762 12.1905 4.41208 12.1905 6.09524C12.1905 7.77839 13.5549 9.14286 15.2381 9.14286Z" fill="#005FEC"/>
<path d="M41.3699 23H43.9409V16.3665C43.9409 15.0241 44.8358 14.1151 45.9437 14.1151C47.0304 14.1151 47.7761 14.8466 47.7761 15.9688V23H50.2974V16.196C50.2974 14.9673 51.0289 14.1151 52.2718 14.1151C53.3088 14.1151 54.1326 14.7259 54.1326 16.0753V23H56.7108V15.6776C56.7108 13.2415 55.3045 11.9489 53.3017 11.9489C51.7179 11.9489 50.5105 12.7301 50.0275 13.9446H49.9139C49.4949 12.7088 48.4366 11.9489 46.9664 11.9489C45.5034 11.9489 44.4096 12.7017 43.9551 13.9446H43.8272V12.0909H41.3699V23ZM64.1486 23.2131C66.6912 23.2131 68.4384 21.9702 68.8929 20.0739L66.4924 19.804C66.1444 20.7273 65.2921 21.2102 64.1841 21.2102C62.5222 21.2102 61.4213 20.1165 61.4 18.2486H68.9995V17.4602C68.9995 13.6321 66.6983 11.9489 64.0137 11.9489C60.8887 11.9489 58.8503 14.2429 58.8503 17.6094C58.8503 21.0327 60.8603 23.2131 64.1486 23.2131ZM61.4071 16.5156C61.4853 15.1236 62.5151 13.9517 64.0492 13.9517C65.5265 13.9517 66.5208 15.0312 66.535 16.5156H61.4071ZM76.622 12.0909H74.47V9.47727H71.899V12.0909H70.3507V14.0795H71.899V20.1449C71.8848 22.1974 73.3762 23.206 75.3081 23.1491C76.0396 23.1278 76.5439 22.9858 76.8208 22.8935L76.3876 20.8835C76.2456 20.919 75.9544 20.983 75.6348 20.983C74.9885 20.983 74.47 20.7557 74.47 19.7188V14.0795H76.622V12.0909ZM84.2196 12.0909H82.0676V9.47727H79.4966V12.0909H77.9483V14.0795H79.4966V20.1449C79.4824 22.1974 80.9739 23.206 82.9057 23.1491C83.6373 23.1278 84.1415 22.9858 84.4185 22.8935L83.9853 20.8835C83.8432 20.919 83.552 20.983 83.2324 20.983C82.5861 20.983 82.0676 20.7557 82.0676 19.7188V14.0795H84.2196V12.0909ZM86.3699 23H88.9409V12.0909H86.3699V23ZM87.6625 10.5426C88.4792 10.5426 89.1468 9.91761 89.1468 9.15057C89.1468 8.37642 88.4792 7.75142 87.6625 7.75142C86.8386 7.75142 86.171 8.37642 86.171 9.15057C86.171 9.91761 86.8386 10.5426 87.6625 10.5426ZM94.1557 16.608C94.1557 15.0312 95.1074 14.1222 96.464 14.1222C97.7921 14.1222 98.5875 14.9957 98.5875 16.4517V23H101.159V16.054C101.166 13.4403 99.6742 11.9489 97.4228 11.9489C95.7892 11.9489 94.6671 12.7301 94.1699 13.9446H94.0421V12.0909H91.5847V23H94.1557V16.608ZM108.517 27.3182C111.464 27.3182 113.637 25.9688 113.637 23.1776V12.0909H111.102V13.8949H110.96C110.569 13.1065 109.752 11.9489 107.828 11.9489C105.306 11.9489 103.325 13.9233 103.325 17.5099C103.325 21.0682 105.306 22.8438 107.82 22.8438C109.688 22.8438 110.562 21.8423 110.96 21.0398H111.088V23.1065C111.088 24.7116 110.022 25.3722 108.559 25.3722C107.011 25.3722 106.329 24.6406 106.017 24.0014L103.701 24.5625C104.17 26.0895 105.74 27.3182 108.517 27.3182ZM108.538 20.8267C106.84 20.8267 105.945 19.5057 105.945 17.4957C105.945 15.5142 106.826 14.0582 108.538 14.0582C110.193 14.0582 111.102 15.429 111.102 17.4957C111.102 19.5767 110.178 20.8267 108.538 20.8267Z" fill="#18216D"/>
</svg>
